<svg id="Layer_1" data-name="Layer 1" xmlns="http://www.w3.org/2000/svg" viewBox="0 0 475.13 85.7"><defs><style>.cls-1{fill:#fff;fill-rule:evenodd;}</style></defs><path class="cls-1" d="M42,89.7h19.2l-9.3-25.1ZM0,114.4,33.59,43h38.1L103,114.4H70.49l-2.6-7h-33l-2.8,7Zm138.5-17.9h21.3c4.9,0,8.1-.4,9.5-1.2s2.2-2.4,2.2-4.6-.8-3.8-2.2-4.6-4.7-1.3-9.4-1.3h-21.3V96.5Zm0-36.8V69.8h20.1c4.4,0,7.2-.4,8.5-1.1s1.9-2,1.9-3.9a4.41,4.41,0,0,0-1.8-4c-1.2-.7-4.1-1.1-8.6-1.1Zm32.3-16.8c10.8,0,18.5,1.4,23,4.1s6.7,7.3,6.7,13.7a16.54,16.54,0,0,1-2.6,9.2,19,19,0,0,1-7.7,6.4,19.25,19.25,0,0,1,10.1,6.4,17.78,17.78,0,0,1,3.4,11.2q0,10.2-7.2,15.3c-4.8,3.4-12.1,5.1-21.8,5.1h-66.3V42.9Zm45.6,71.5V42.9h35.5L281.79,84V42.9h29.1v71.4h-33.7l-32.5-41.8v41.8h-28.3Z" transform="translate(0.01 -29.2)"/><path class="cls-1" d="M334.09,70.3l140.2-27.5c1.3-.6,1-1.8-.4-2.2L360.29,43,333,68.2c-.7,1-.4,2.2,1.1,2.1" transform="translate(0.01 -29.2)"/><path class="cls-1" d="M334.09,92.6l140.2-27.5c1.3-.6,1-1.8-.4-2.2l-113.6,2.4L333,90.5c-.7.9-.4,2.2,1.1,2.1" transform="translate(0.01 -29.2)"/><path class="cls-1" d="M334.09,114.9l140.2-27.5c1.3-.6,1-1.8-.4-2.2l-113.6,2.4L333,112.8c-.7.9-.4,2.1,1.1,2.1" transform="translate(0.01 -29.2)"/><polygon class="cls-1" points="323.2 15.8 320.7 15.8 320.7 2.2 316 2.2 316 0 328 0 328 2.2 323.2 2.2 323.2 15.8"/><polygon class="cls-1" points="331.4 15.8 329.2 15.8 329.2 0 332.5 0 337 11.9 341.3 0 344.5 0 344.5 15.8 342.3 15.8 342.4 3.6 337.8 15.8 336 15.8 331.4 3.8 331.4 15.8"/></svg>