<svg id="Layer_1" enable-background="new 0 0 512.004 512.004" height="512" viewBox="0 0 512.004 512.004" width="512" xmlns="http://www.w3.org/2000/svg"><g><g fill="#bfd5dd"><path d="m511.722 31.749c-1.122-3.987-5.264-6.309-9.251-5.188l-.177.05c-46.856 13.193-95.133 22.675-143.492 28.181-4.115.468-7.072 4.185-6.603 8.3.436 3.827 3.68 6.652 7.442 6.652.283 0 .57-.016.858-.049 49.157-5.597 98.231-15.235 145.859-28.646l.175-.049c3.987-1.122 6.31-5.264 5.189-9.251z"/><path d="m329.63 57.637c-48.854 3.972-98.4 3.972-147.256 0-4.132-.334-7.748 2.74-8.083 6.868-.336 4.129 2.739 7.748 6.867 8.083 24.832 2.019 49.838 3.028 74.844 3.028s50.013-1.009 74.844-3.028c4.128-.335 7.203-3.954 6.868-8.083-.337-4.13-3.952-7.201-8.084-6.868z"/><path d="m153.202 54.791c-48.421-5.513-96.758-15.011-143.666-28.23-3.988-1.125-8.129 1.198-9.253 5.185s1.198 8.129 5.185 9.253c47.683 13.437 96.816 23.092 146.037 28.696.289.033.575.049.858.049 3.762 0 7.007-2.825 7.442-6.652.469-4.116-2.488-7.832-6.603-8.301z"/></g><g fill="#51697a"><path d="m181.766 25.63h-29.412c-4.142 0-7.5 3.358-7.5 7.5v76.975c0 4.142 3.358 7.5 7.5 7.5h29.412c4.142 0 7.5-3.358 7.5-7.5v-76.975c0-4.142-3.358-7.5-7.5-7.5z"/><path d="m359.65 25.63h-29.413c-4.142 0-7.5 3.358-7.5 7.5v76.975c0 4.142 3.358 7.5 7.5 7.5h29.413c4.142 0 7.5-3.358 7.5-7.5v-76.975c0-4.142-3.358-7.5-7.5-7.5z"/></g><g><g><path d="m446.152 139.753v312.33c0 18.91-15.38 34.29-34.29 34.29h-311.29c-18.91 0-34.29-15.38-34.29-34.29v-312.33c0-18.91 15.38-34.29 34.29-34.29h311.29c18.91 0 34.29 15.38 34.29 34.29z" fill="#e5f5f9"/><path d="m446.152 139.753v312.33c0 18.91-15.38 34.29-34.29 34.29h-29.98c18.94 0 34.29-15.35 34.29-34.29v-312.33c0-18.94-15.35-34.29-34.29-34.29h29.98c18.91 0 34.29 15.38 34.29 34.29z" fill="#bfd5dd"/><path d="m416.172 143.024v260.69c0 4.15-3.35 7.5-7.5 7.5h-304.92c-4.14 0-7.5-3.35-7.5-7.5v-260.69c0-4.14 3.36-7.5 7.5-7.5h304.92c4.15 0 7.5 3.359 7.5 7.5z" fill="#5cd5ff"/><path d="m416.172 143.024v260.69c0 4.15-3.35 7.5-7.5 7.5h-30c4.14 0 7.5-3.36 7.5-7.5v-260.69c0-4.14-3.36-7.5-7.5-7.5h30c4.15 0 7.5 3.359 7.5 7.5z" fill="#5ab5ff"/><path d="m320.232 212.023c0 21.74-17.69 39.42-39.42 39.42-4.37 0-8.57-.71-12.5-2.03-15.63-5.24-26.92-20.02-26.92-37.39 0-17.36 11.29-32.15 26.92-37.39 3.93-1.32 8.13-2.03 12.5-2.03 21.73 0 39.42 17.69 39.42 39.42z" fill="#ffeb31"/><path d="m320.232 212.023c0 21.74-17.69 39.42-39.42 39.42-4.37 0-8.57-.71-12.5-2.03 15.63-5.24 26.92-20.02 26.92-37.39 0-17.36-11.29-32.15-26.92-37.39 3.93-1.32 8.13-2.03 12.5-2.03 21.73 0 39.42 17.69 39.42 39.42z" fill="#ffce00"/><path d="m416.172 353.453v50.26c0 4.15-3.35 7.5-7.5 7.5h-304.92c-4.14 0-7.5-3.35-7.5-7.5v-85.28h48.93l63.44-63.44c2.93-2.93 7.68-2.93 10.6 0l67.71 67.71 43.94-43.94c1.41-1.41 3.32-2.2 5.31-2.2s3.89.79 5.3 2.2z" fill="#91ff31"/><path d="m416.172 353.453v50.26c0 4.15-3.35 7.5-7.5 7.5h-30c4.14 0 7.5-3.36 7.5-7.5v-80.26z" fill="#00ea80"/></g></g></g></svg>